<svg width="11" height="11" viewBox="0 0 11 11" fill="none" xmlns="http://www.w3.org/2000/svg">
<path d="M8.77273 1.81818H2.22727C1.54947 1.81818 1 2.36764 1 3.04545V8.77272C1 9.45053 1.54947 9.99999 2.22727 9.99999H8.77273C9.45053 9.99999 10 9.45053 10 8.77272V3.04545C10 2.36764 9.45053 1.81818 8.77273 1.81818Z" stroke="#808080" stroke-width="0.7" stroke-linecap="round" stroke-linejoin="round"/>
<path d="M1 4.27277H10" stroke="#808080" stroke-width="0.7" stroke-linecap="round" stroke-linejoin="round"/>
<path d="M5.5 2.63636V1" stroke="#808080" stroke-width="0.7" stroke-linecap="round" stroke-linejoin="round"/>
<path d="M3.04547 2.63636V1" stroke="#808080" stroke-width="0.7" stroke-linecap="round" stroke-linejoin="round"/>
<path d="M7.95453 2.63636V1" stroke="#808080" stroke-width="0.7" stroke-linecap="round" stroke-linejoin="round"/>
<path d="M2.63638 6.31818H3.45456" stroke="#808080" stroke-width="0.7" stroke-linecap="round" stroke-linejoin="round"/>
<path d="M5.09091 6.31818H5.90909" stroke="#808080" stroke-width="0.7" stroke-linecap="round" stroke-linejoin="round"/>
<path d="M7.54547 6.31818H8.36365" stroke="#808080" stroke-width="0.7" stroke-linecap="round" stroke-linejoin="round"/>
<path d="M2.63638 7.95453H3.45456" stroke="#808080" stroke-width="0.7" stroke-linecap="round" stroke-linejoin="round"/>
<path d="M5.09091 7.95453H5.90909" stroke="#808080" stroke-width="0.7" stroke-linecap="round" stroke-linejoin="round"/>
<path d="M7.54547 7.95453H8.36365" stroke="#808080" stroke-width="0.7" stroke-linecap="round" stroke-linejoin="round"/>
</svg>
